<svg class="main-svg" xmlns="http://www.w3.org/2000/svg" xmlns:xlink="http://www.w3.org/1999/xlink" width="410" height="381" style="" viewBox="0 0 410 381"><rect x="0" y="0" width="410" height="381" style="fill: rgb(255, 255, 255); fill-opacity: 1;"/><defs id="defs-8b2c2b"><g class="clips"><clipPath id="clip8b2c2bxyplot" class="plotclip"><rect width="290" height="261"/></clipPath><clipPath class="axesclip" id="clip8b2c2bx"><rect x="60" y="0" width="290" height="381"/></clipPath><clipPath class="axesclip" id="clip8b2c2by"><rect x="0" y="60" width="410" height="261"/></clipPath><clipPath class="axesclip" id="clip8b2c2bxy"><rect x="60" y="60" width="290" height="261"/></clipPath></g><g class="gradients"/></defs><g class="bglayer"/><g class="layer-below"><g class="imagelayer"/><g class="shapelayer"/></g><g class="cartesianlayer"><g class="subplot xy"><g class="layer-subplot"><g class="shapelayer"/><g class="imagelayer"/></g><g class="gridlayer"><g class="x"><path class="xgrid crisp" transform="translate(174.17000000000002,0)" d="M0,60v261" style="stroke: rgb(238, 238, 238); stroke-opacity: 1; stroke-width: 1px;"/><path class="xgrid crisp" transform="translate(288.35,0)" d="M0,60v261" style="stroke: rgb(238, 238, 238); stroke-opacity: 1; stroke-width: 1px;"/></g><g class="y"><path class="ygrid crisp" transform="translate(0,273.41999999999996)" d="M60,0h290" style="stroke: rgb(238, 238, 238); stroke-opacity: 1; stroke-width: 1px;"/><path class="ygrid crisp" transform="translate(0,221.94)" d="M60,0h290" style="stroke: rgb(238, 238, 238); stroke-opacity: 1; stroke-width: 1px;"/><path class="ygrid crisp" transform="translate(0,170.47)" d="M60,0h290" style="stroke: rgb(238, 238, 238); stroke-opacity: 1; stroke-width: 1px;"/><path class="ygrid crisp" transform="translate(0,119)" d="M60,0h290" style="stroke: rgb(238, 238, 238); stroke-opacity: 1; stroke-width: 1px;"/><path class="ygrid crisp" transform="translate(0,67.53)" d="M60,0h290" style="stroke: rgb(238, 238, 238); stroke-opacity: 1; stroke-width: 1px;"/></g></g><g class="zerolinelayer"><path class="xzl zl crisp" transform="translate(60,0)" d="M0,60v261" style="stroke: rgb(68, 68, 68); stroke-opacity: 1; stroke-width: 1px;"/></g><path class="xlines-below"/><path class="ylines-below"/><g class="overlines-below"/><g class="xaxislayer-below"/><g class="yaxislayer-below"/><g class="overaxes-below"/><g class="plot" transform="translate(60,60)" clip-path="url('#clip8b2c2bxyplot')"><g class="scatterlayer mlayer"><g class="trace scatter trace3b5883" style="stroke-miterlimit: 2; opacity: 1;"><g class="fills"/><g class="errorbars"/><g class="lines"><path class="js-line" style="vector-effect: non-scaling-stroke; fill: none; stroke: rgb(31, 119, 180); stroke-opacity: 1; stroke-width: 2px; opacity: 1;" d="M0,13.05L2.28,55.66L3.43,63.53L5.71,73.68L6.85,76.56L14.84,92.56L15.98,94.42L18.27,98.01L19.41,132.69L20.55,128.58L21.69,130.3L23.98,131.1L25.12,132.95L30.83,136.07L31.97,136.15L36.54,138.46L37.68,138.9L38.82,155.16L39.96,154.92L42.24,153.25L43.39,154.02L46.81,154.57L47.95,154.9L50.24,155.89L51.38,155.54L53.66,155.87L54.8,155.97L57.09,155.68L58.23,164.14L60.51,163.58L61.65,165.3L63.94,167.55L65.08,166.92L68.5,167.82L69.65,167.39L73.07,166.65L74.21,166.66L76.5,167.1L77.64,177.65L78.78,179.49L79.92,178.96L81.06,178.5L82.2,177.22L84.49,176.26L85.63,176.21L89.06,175.89L90.2,174.9L95.91,174.41L97.05,184.19L98.19,187.03L99.33,184.7L100.47,182.47L101.61,182.1L102.76,182.05L103.9,180.95L106.18,180.85L107.32,181.65L108.46,182.12L109.61,181.66L114.17,181.34L115.31,181.76L117.6,192.19L118.74,191.25L119.88,192.15L121.02,192.09L124.45,189.61L125.59,189.25L126.73,189.66L127.87,189.06L131.3,188.09L132.44,187.96L134.72,187.68L135.87,200.1L137.01,199.94L138.15,198.38L140.43,195.82L141.57,194.87L143.86,194.35L145,193.97L147.28,194.13L148.43,193.91L150.71,193.06L151.85,193L154.13,192.66L155.28,196.29L156.42,201.7L157.56,200.66L159.84,198.84L160.98,198.43L172.4,196.55L173.54,196.05L174.69,203.01L175.83,203.23L180.39,202.17L181.54,202.61L183.82,202.2L184.96,201.51L190.67,201.01L191.81,200.76L192.95,200.45L194.09,218.53L197.52,225.05L198.66,224.72L200.94,225.71L202.09,226.45L212.36,228.75L213.5,233.91L215.79,235.72L216.93,235.16L218.07,235.62L219.21,235.25L224.92,236.03L226.06,235.99L230.63,235.96L231.77,236.03L232.91,240.43L234.06,238.69L236.34,237.64L237.48,238.63L238.62,239.46L239.76,239.14L242.05,238.94L243.19,239.21L250.04,239.27L251.18,239.59L253.46,243.57L254.61,242.5L258.03,241.88L259.17,241.98L267.17,241.73L268.31,241.96L270.59,241.91L271.73,247.95L272.87,245L274.02,244.94L284.29,245.56L285.43,245.41L290,244.63"/></g><g class="points"/><g class="text"/></g></g></g><g class="overplot"/><path class="xlines-above crisp" style="fill: none;" d="M0,0"/><path class="ylines-above crisp" style="fill: none;" d="M0,0"/><g class="overlines-above"/><g class="xaxislayer-above"><g class="xtick"><text text-anchor="middle" x="0" y="334" style="font-family: TOBESTRIPPEDOpen SansTOBESTRIPPED, verdana, arial, sans-serif; font-size: 12px; fill: rgb(68, 68, 68); fill-opacity: 1; white-space: pre;" transform="translate(60,0)">0</text></g><g class="xtick"><text text-anchor="middle" x="0" y="334" style="font-family: TOBESTRIPPEDOpen SansTOBESTRIPPED, verdana, arial, sans-serif; font-size: 12px; fill: rgb(68, 68, 68); fill-opacity: 1; white-space: pre;" transform="translate(174.17000000000002,0)">100</text></g><g class="xtick"><text text-anchor="middle" x="0" y="334" style="font-family: TOBESTRIPPEDOpen SansTOBESTRIPPED, verdana, arial, sans-serif; font-size: 12px; fill: rgb(68, 68, 68); fill-opacity: 1; white-space: pre;" transform="translate(288.35,0)">200</text></g></g><g class="yaxislayer-above"><g class="ytick"><text text-anchor="end" x="59" y="4.199999999999999" style="font-family: TOBESTRIPPEDOpen SansTOBESTRIPPED, verdana, arial, sans-serif; font-size: 12px; fill: rgb(68, 68, 68); fill-opacity: 1; white-space: pre;" transform="translate(0,273.41999999999996)">0.2</text></g><g class="ytick"><text text-anchor="end" x="59" y="4.199999999999999" style="font-family: TOBESTRIPPEDOpen SansTOBESTRIPPED, verdana, arial, sans-serif; font-size: 12px; fill: rgb(68, 68, 68); fill-opacity: 1; white-space: pre;" transform="translate(0,221.94)">0.3</text></g><g class="ytick"><text text-anchor="end" x="59" y="4.199999999999999" style="font-family: TOBESTRIPPEDOpen SansTOBESTRIPPED, verdana, arial, sans-serif; font-size: 12px; fill: rgb(68, 68, 68); fill-opacity: 1; white-space: pre;" transform="translate(0,170.47)">0.4</text></g><g class="ytick"><text text-anchor="end" x="59" y="4.199999999999999" style="font-family: TOBESTRIPPEDOpen SansTOBESTRIPPED, verdana, arial, sans-serif; font-size: 12px; fill: rgb(68, 68, 68); fill-opacity: 1; white-space: pre;" transform="translate(0,119)">0.5</text></g><g class="ytick"><text text-anchor="end" x="59" y="4.199999999999999" style="font-family: TOBESTRIPPEDOpen SansTOBESTRIPPED, verdana, arial, sans-serif; font-size: 12px; fill: rgb(68, 68, 68); fill-opacity: 1; white-space: pre;" transform="translate(0,67.53)">0.6</text></g></g><g class="overaxes-above"/></g></g><g class="polarlayer"/><g class="ternarylayer"/><g class="geolayer"/><g class="funnelarealayer"/><g class="pielayer"/><g class="treemaplayer"/><g class="sunburstlayer"/><g class="glimages"/><defs id="topdefs-8b2c2b"><g class="clips"/></defs><g class="layer-above"><g class="imagelayer"/><g class="shapelayer"/></g><g class="infolayer"><g class="g-gtitle"><text class="gtitle" style="font-family: TOBESTRIPPEDOpen SansTOBESTRIPPED, verdana, arial, sans-serif; font-size: 17px; fill: rgb(68, 68, 68); opacity: 1; font-weight: normal; white-space: pre;" x="205" y="30" text-anchor="middle" dy="0em">roi_loc_loss</text></g><g class="g-xtitle"><text class="xtitle" style="font-family: TOBESTRIPPEDOpen SansTOBESTRIPPED, verdana, arial, sans-serif; font-size: 14px; fill: rgb(68, 68, 68); opacity: 1; font-weight: normal; white-space: pre;" x="205" y="373" text-anchor="middle">px</text></g><g class="g-ytitle"/></g></svg>