<svg class="main-svg" xmlns="http://www.w3.org/2000/svg" xmlns:xlink="http://www.w3.org/1999/xlink" width="372" height="336" style="" viewBox="0 0 372 336"><rect x="0" y="0" width="372" height="336" style="fill: rgb(255, 255, 255); fill-opacity: 1;"/><defs id="defs-1d44ad"><g class="clips"><clipPath id="clip1d44adxyplot" class="plotclip"><rect width="252" height="216"/></clipPath><clipPath class="axesclip" id="clip1d44adx"><rect x="60" y="0" width="252" height="336"/></clipPath><clipPath class="axesclip" id="clip1d44ady"><rect x="0" y="60" width="372" height="216"/></clipPath><clipPath class="axesclip" id="clip1d44adxy"><rect x="60" y="60" width="252" height="216"/></clipPath></g><g class="gradients"/></defs><g class="bglayer"/><g class="layer-below"><g class="imagelayer"/><g class="shapelayer"/></g><g class="cartesianlayer"><g class="subplot xy"><g class="layer-subplot"><g class="shapelayer"/><g class="imagelayer"/></g><g class="gridlayer"><g class="x"><path class="xgrid crisp" transform="translate(159.20999999999998,0)" d="M0,60v216" style="stroke: rgb(238, 238, 238); stroke-opacity: 1; stroke-width: 1px;"/><path class="xgrid crisp" transform="translate(258.43,0)" d="M0,60v216" style="stroke: rgb(238, 238, 238); stroke-opacity: 1; stroke-width: 1px;"/></g><g class="y"><path class="ygrid crisp" transform="translate(0,260.57)" d="M60,0h252" style="stroke: rgb(238, 238, 238); stroke-opacity: 1; stroke-width: 1px;"/><path class="ygrid crisp" transform="translate(0,219.57)" d="M60,0h252" style="stroke: rgb(238, 238, 238); stroke-opacity: 1; stroke-width: 1px;"/><path class="ygrid crisp" transform="translate(0,178.57)" d="M60,0h252" style="stroke: rgb(238, 238, 238); stroke-opacity: 1; stroke-width: 1px;"/><path class="ygrid crisp" transform="translate(0,137.57)" d="M60,0h252" style="stroke: rgb(238, 238, 238); stroke-opacity: 1; stroke-width: 1px;"/><path class="ygrid crisp" transform="translate(0,96.57)" d="M60,0h252" style="stroke: rgb(238, 238, 238); stroke-opacity: 1; stroke-width: 1px;"/></g></g><g class="zerolinelayer"><path class="xzl zl crisp" transform="translate(60,0)" d="M0,60v216" style="stroke: rgb(68, 68, 68); stroke-opacity: 1; stroke-width: 1px;"/></g><path class="xlines-below"/><path class="ylines-below"/><g class="overlines-below"/><g class="xaxislayer-below"/><g class="yaxislayer-below"/><g class="overaxes-below"/><g class="plot" transform="translate(60,60)" clip-path="url('#clip1d44adxyplot')"><g class="scatterlayer mlayer"><g class="trace scatter trace31abc5" style="stroke-miterlimit: 2; opacity: 1;"><g class="fills"/><g class="errorbars"/><g class="lines"><path class="js-line" style="vector-effect: non-scaling-stroke; fill: none; stroke: rgb(31, 119, 180); stroke-opacity: 1; stroke-width: 2px; opacity: 1;" d="M0,10.8L1.98,65.56L2.98,75.27L5.95,89.93L6.94,91.79L9.92,99.94L10.91,102.63L13.89,108.86L14.88,110.77L15.87,112.25L16.87,139.59L17.86,138.07L18.85,140.77L20.83,142.44L21.83,142.88L26.79,144.64L27.78,144.96L32.74,146.66L33.73,158.05L35.72,154.72L36.71,154.17L38.69,154.21L39.69,154.81L42.66,156.4L43.65,156.19L46.63,155.87L47.62,156.11L49.61,155.55L50.6,161.54L52.58,159.86L53.57,161L55.56,162.53L56.55,161.46L60.52,162.09L61.51,161.45L63.5,161.96L64.49,161.73L66.47,161.69L67.46,171.44L71.43,168.03L72.43,168.21L74.41,168.4L75.4,168.17L77.39,167.81L78.38,167L82.35,167.06L83.34,166.67L85.32,171.79L86.31,171.01L88.3,170.72L89.29,171.2L92.27,169.92L93.26,170.34L94.25,170.76L95.24,170.15L97.23,169.7L98.22,169.62L100.2,169.8L101.2,173.12L102.19,173.88L103.18,173.37L106.16,173.73L107.15,173.31L110.13,172.75L111.12,173L114.09,172.39L115.09,172.36L117.07,171.99L118.06,181.71L120.05,179.18L121.04,178.76L124.02,175.47L125.01,175.43L129.97,174.92L130.96,174.72L133.94,174.55L134.93,176.34L135.92,179.47L136.91,178.85L138.9,176.68L139.89,176.1L141.87,177.16L142.87,177.08L147.83,177.67L148.82,177.1L150.8,176.62L151.8,179.35L152.79,179.42L153.78,180.29L154.77,181.35L155.76,180.66L156.76,179.95L157.75,180.24L167.67,178.21L168.66,190.16L169.65,189.92L170.65,190.97L171.64,192.19L172.63,192.12L176.6,193.27L177.59,193.35L180.57,193.69L181.56,193.67L184.54,194.21L185.53,198.02L201.4,197.92L202.39,199.33L206.36,199.32L207.35,199.85L216.28,199.77L217.28,199.73L219.26,200.87L220.25,201.9L224.22,201.5L225.21,201.42L231.17,201.11L232.16,201.18L235.13,201.33L236.13,205.2L238.11,203.02L239.1,203.19L252,202.51"/></g><g class="points"/><g class="text"/></g></g></g><g class="overplot"/><path class="xlines-above crisp" style="fill: none;" d="M0,0"/><path class="ylines-above crisp" style="fill: none;" d="M0,0"/><g class="overlines-above"/><g class="xaxislayer-above"><g class="xtick"><text text-anchor="middle" x="0" y="289" style="font-family: TOBESTRIPPEDOpen SansTOBESTRIPPED, verdana, arial, sans-serif; font-size: 12px; fill: rgb(68, 68, 68); fill-opacity: 1; white-space: pre;" transform="translate(60,0)">0</text></g><g class="xtick"><text text-anchor="middle" x="0" y="289" style="font-family: TOBESTRIPPEDOpen SansTOBESTRIPPED, verdana, arial, sans-serif; font-size: 12px; fill: rgb(68, 68, 68); fill-opacity: 1; white-space: pre;" transform="translate(159.20999999999998,0)">100</text></g><g class="xtick"><text text-anchor="middle" x="0" y="289" style="font-family: TOBESTRIPPEDOpen SansTOBESTRIPPED, verdana, arial, sans-serif; font-size: 12px; fill: rgb(68, 68, 68); fill-opacity: 1; white-space: pre;" transform="translate(258.43,0)">200</text></g></g><g class="yaxislayer-above"><g class="ytick"><text text-anchor="end" x="59" y="4.199999999999999" style="font-family: TOBESTRIPPEDOpen SansTOBESTRIPPED, verdana, arial, sans-serif; font-size: 12px; fill: rgb(68, 68, 68); fill-opacity: 1; white-space: pre;" transform="translate(0,260.57)">0.2</text></g><g class="ytick"><text text-anchor="end" x="59" y="4.199999999999999" style="font-family: TOBESTRIPPEDOpen SansTOBESTRIPPED, verdana, arial, sans-serif; font-size: 12px; fill: rgb(68, 68, 68); fill-opacity: 1; white-space: pre;" transform="translate(0,219.57)">0.4</text></g><g class="ytick"><text text-anchor="end" x="59" y="4.199999999999999" style="font-family: TOBESTRIPPEDOpen SansTOBESTRIPPED, verdana, arial, sans-serif; font-size: 12px; fill: rgb(68, 68, 68); fill-opacity: 1; white-space: pre;" transform="translate(0,178.57)">0.6</text></g><g class="ytick"><text text-anchor="end" x="59" y="4.199999999999999" style="font-family: TOBESTRIPPEDOpen SansTOBESTRIPPED, verdana, arial, sans-serif; font-size: 12px; fill: rgb(68, 68, 68); fill-opacity: 1; white-space: pre;" transform="translate(0,137.57)">0.8</text></g><g class="ytick"><text text-anchor="end" x="59" y="4.199999999999999" style="font-family: TOBESTRIPPEDOpen SansTOBESTRIPPED, verdana, arial, sans-serif; font-size: 12px; fill: rgb(68, 68, 68); fill-opacity: 1; white-space: pre;" transform="translate(0,96.57)">1</text></g></g><g class="overaxes-above"/></g></g><g class="polarlayer"/><g class="ternarylayer"/><g class="geolayer"/><g class="funnelarealayer"/><g class="pielayer"/><g class="treemaplayer"/><g class="sunburstlayer"/><g class="glimages"/><defs id="topdefs-1d44ad"><g class="clips"/></defs><g class="layer-above"><g class="imagelayer"/><g class="shapelayer"/></g><g class="infolayer"><g class="g-gtitle"><text class="gtitle" style="font-family: TOBESTRIPPEDOpen SansTOBESTRIPPED, verdana, arial, sans-serif; font-size: 17px; fill: rgb(68, 68, 68); opacity: 1; font-weight: normal; white-space: pre;" x="186" y="30" text-anchor="middle" dy="0em">roi_cls_loss</text></g><g class="g-xtitle"><text class="xtitle" style="font-family: TOBESTRIPPEDOpen SansTOBESTRIPPED, verdana, arial, sans-serif; font-size: 14px; fill: rgb(68, 68, 68); opacity: 1; font-weight: normal; white-space: pre;" x="186" y="328" text-anchor="middle">px</text></g><g class="g-ytitle"/></g></svg>