<?xml version="1.0" encoding="UTF-8" standalone="no"?>
<svg
   class="main-svg"
   width="448"
   height="381"
   style=""
   viewBox="0 0 448 381"
   version="1.1"
   id="svg194"
   sodipodi:docname="rpn_Loc_Loss.svg"
   inkscape:version="1.1 (c68e22c387, 2021-05-23)"
   xmlns:inkscape="http://www.inkscape.org/namespaces/inkscape"
   xmlns:sodipodi="http://sodipodi.sourceforge.net/DTD/sodipodi-0.dtd"
   xmlns="http://www.w3.org/2000/svg"
   xmlns:svg="http://www.w3.org/2000/svg">
  <sodipodi:namedview
     id="namedview196"
     pagecolor="#ffffff"
     bordercolor="#666666"
     borderopacity="1.0"
     inkscape:pageshadow="2"
     inkscape:pageopacity="0.0"
     inkscape:pagecheckerboard="0"
     showgrid="false"
     inkscape:zoom="1.5070097"
     inkscape:cx="189.44801"
     inkscape:cy="172.85887"
     inkscape:window-width="1920"
     inkscape:window-height="1001"
     inkscape:window-x="-9"
     inkscape:window-y="-9"
     inkscape:window-maximized="1"
     inkscape:current-layer="svg194" />
  <rect
     x="0"
     y="0"
     width="448"
     height="381"
     style="fill:#ffffff;fill-opacity:1"
     id="rect2" />
  <defs
     id="defs-9a19af">
    <g
       class="clips"
       id="g16">
      <clipPath
         id="clip9a19afxyplot"
         class="plotclip">
        <rect
           width="328"
           height="261"
           id="rect4" />
      </clipPath>
      <clipPath
         class="axesclip"
         id="clip9a19afx">
        <rect
           x="60"
           y="0"
           width="328"
           height="381"
           id="rect7" />
      </clipPath>
      <clipPath
         class="axesclip"
         id="clip9a19afy">
        <rect
           x="0"
           y="60"
           width="448"
           height="261"
           id="rect10" />
      </clipPath>
      <clipPath
         class="axesclip"
         id="clip9a19afxy">
        <rect
           x="60"
           y="60"
           width="328"
           height="261"
           id="rect13" />
      </clipPath>
    </g>
    <g
       class="gradients"
       id="g18" />
  </defs>
  <g
     class="bglayer"
     id="g21" />
  <g
     class="layer-below"
     id="g27">
    <g
       class="imagelayer"
       id="g23" />
    <g
       class="shapelayer"
       id="g25" />
  </g>
  <g
     class="cartesianlayer"
     id="g155"
     transform="scale(1.1087394,1)">
    <g
       class="subplot xy"
       id="g153">
      <g
         class="layer-subplot"
         id="g33">
        <g
           class="shapelayer"
           id="g29" />
        <g
           class="imagelayer"
           id="g31" />
      </g>
      <g
         class="gridlayer"
         id="g59">
        <g
           class="x"
           id="g45">
          <path
             class="xgrid crisp"
             transform="translate(124.57)"
             d="M 0,60 V 321"
             style="stroke:#eeeeee;stroke-width:1px;stroke-opacity:1"
             id="path35" />
          <path
             class="xgrid crisp"
             transform="translate(189.13)"
             d="M 0,60 V 321"
             style="stroke:#eeeeee;stroke-width:1px;stroke-opacity:1"
             id="path37" />
          <path
             class="xgrid crisp"
             transform="translate(253.7)"
             d="M 0,60 V 321"
             style="stroke:#eeeeee;stroke-width:1px;stroke-opacity:1"
             id="path39" />
          <path
             class="xgrid crisp"
             transform="translate(318.27)"
             d="M 0,60 V 321"
             style="stroke:#eeeeee;stroke-width:1px;stroke-opacity:1"
             id="path41" />
          <path
             class="xgrid crisp"
             transform="translate(382.83)"
             d="M 0,60 V 321"
             style="stroke:#eeeeee;stroke-width:1px;stroke-opacity:1"
             id="path43" />
        </g>
        <g
           class="y"
           id="g57">
          <path
             class="ygrid crisp"
             transform="translate(0,313.81)"
             d="M 60,0 H 388"
             style="stroke:#eeeeee;stroke-width:1px;stroke-opacity:1"
             id="path47" />
          <path
             class="ygrid crisp"
             transform="translate(0,251.58)"
             d="M 60,0 H 388"
             style="stroke:#eeeeee;stroke-width:1px;stroke-opacity:1"
             id="path49" />
          <path
             class="ygrid crisp"
             transform="translate(0,189.34)"
             d="M 60,0 H 388"
             style="stroke:#eeeeee;stroke-width:1px;stroke-opacity:1"
             id="path51" />
          <path
             class="ygrid crisp"
             transform="translate(0,127.11)"
             d="M 60,0 H 388"
             style="stroke:#eeeeee;stroke-width:1px;stroke-opacity:1"
             id="path53" />
          <path
             class="ygrid crisp"
             transform="translate(0,64.87)"
             d="M 60,0 H 388"
             style="stroke:#eeeeee;stroke-width:1px;stroke-opacity:1"
             id="path55" />
        </g>
      </g>
      <g
         class="zerolinelayer"
         id="g63">
        <path
           class="xzl zl crisp"
           transform="translate(60)"
           d="M 0,60 V 321"
           style="stroke:#444444;stroke-width:1px;stroke-opacity:1"
           id="path61" />
      </g>
      <path
         class="xlines-below"
         id="path65" />
      <path
         class="ylines-below"
         id="path67" />
      <g
         class="overlines-below"
         id="g69" />
      <g
         class="xaxislayer-below"
         id="g71" />
      <g
         class="yaxislayer-below"
         id="g73" />
      <g
         class="overaxes-below"
         id="g75" />
      <g
         class="plot"
         transform="translate(60,60)"
         clip-path="url(#clip9a19afxyplot)"
         id="g93">
        <g
           class="scatterlayer mlayer"
           id="g91">
          <g
             class="trace scatter trace6344cc"
             style="opacity:1;stroke-miterlimit:2"
             id="g89">
            <g
               class="fills"
               id="g77" />
            <g
               class="errorbars"
               id="g79" />
            <g
               class="lines"
               id="g83">
              <path
                 class="js-line"
                 style="opacity:1;vector-effect:non-scaling-stroke;fill:none;stroke:#1f77b4;stroke-width:2px;stroke-opacity:1"
                 d="m 0,13.05 1.29,1.11 1.29,9.18 1.29,4.63 1.3,9.86 2.58,12.33 1.29,5.13 5.16,12.13 1.3,2.05 2.58,5.78 1.29,1.73 1.29,1.92 1.29,48.16 1.29,-5.99 1.3,5.67 1.29,0.27 1.29,-1.14 h 2.58 l 1.29,-0.37 1.29,0.26 1.29,-1.36 2.59,1.04 1.29,-0.47 1.29,-0.69 1.29,1.3 1.29,0.62 1.29,-0.76 1.3,23.99 1.29,-6.93 1.29,2.76 1.29,-2.47 2.58,2.44 1.29,-0.58 1.29,-1.29 1.3,0.02 5.16,-0.49 1.29,0.62 3.88,1.67 1.29,9.36 1.29,0.79 1.29,-2.28 2.58,2.82 1.29,0.04 3.88,1.46 1.29,-0.26 5.17,-0.05 1.29,0.45 2.58,0.65 1.29,23.77 1.29,-10.13 1.29,-2.74 1.3,1.64 1.29,-1.87 1.29,-0.49 1.29,1.06 1.29,-0.35 1.29,-1.95 2.58,1.53 1.3,-0.9 1.29,0.36 1.29,-0.61 1.29,-1.26 1.29,0.35 1.29,-0.15 1.29,12.96 1.3,4.74 1.29,-0.42 1.29,-0.65 1.29,-1.94 2.58,-3.34 1.29,-1.68 3.88,-2.25 1.29,-0.87 2.58,0.3 1.29,0.29 2.59,0.92 1.29,8.94 1.29,2.75 1.29,-0.59 1.29,0.95 1.29,-1.63 2.58,-0.23 1.3,-2.23 2.58,0.89 1.29,-0.58 5.17,-2.43 1.29,0.27 1.29,-0.43 1.29,12.03 1.29,-0.26 1.29,-1.19 1.29,-2.01 1.29,1.67 5.17,-3.51 1.29,1.07 2.58,0.47 1.3,-0.26 2.58,-1.35 1.29,-0.34 1.29,0.12 1.29,6.64 1.29,4.17 1.29,1.05 1.3,-0.3 1.29,-1.42 1.29,-0.66 1.29,-1.6 3.87,-2.47 1.3,0.12 2.58,-0.98 1.29,-0.01 1.29,-1.06 1.29,0.2 1.29,-0.35 1.29,6.56 1.3,0.58 1.29,-2.96 1.29,2.67 1.29,-0.68 2.58,-1.76 1.29,0.3 1.3,0.69 1.29,-1.71 2.58,1.25 1.29,-1.3 1.29,0.37 1.29,-0.56 2.59,-0.24 1.29,18.63 3.87,10.32 1.29,-0.05 1.29,0.52 1.3,1.57 2.58,0.45 1.29,1.28 5.16,3.09 1.3,-0.28 2.58,-0.48 1.29,-7.06 1.29,10.38 1.29,1.26 1.29,-0.32 1.3,2.34 2.58,0.21 1.29,-0.48 2.58,0.78 1.29,-0.92 1.3,0.13 1.29,0.9 2.58,0.46 1.29,0.19 1.29,0.45 1.29,5.23 1.29,0.45 1.3,-2.09 1.29,0.99 1.29,-0.64 1.29,-2.29 1.29,-0.56 2.58,1.16 1.3,1.35 7.74,-0.59 1.29,0.85 1.3,6.29 1.29,0.74 1.29,-3.79 1.29,-0.29 1.29,0.92 1.29,-0.18 1.29,0.58 1.3,-0.4 1.29,-1.72 1.29,0.05 3.87,1.25 1.29,-0.23 2.59,0.14 1.29,-0.47 1.29,2.5 1.29,-1.53 1.29,-0.81 1.29,1 2.59,2.95 1.29,-1.12 1.29,0.06 1.29,0.87 1.29,0.77 1.29,-0.21 1.29,-0.91 1.29,0.21 5.17,-0.88"
                 id="path81" />
            </g>
            <g
               class="points"
               id="g85" />
            <g
               class="text"
               id="g87" />
          </g>
        </g>
      </g>
      <g
         class="overplot"
         id="g95" />
      <path
         class="xlines-above crisp"
         style="fill:none"
         d="M 0,0"
         id="path97" />
      <path
         class="ylines-above crisp"
         style="fill:none"
         d="M 0,0"
         id="path99" />
      <g
         class="overlines-above"
         id="g101" />
      <g
         class="xaxislayer-above"
         id="g127">
        <g
           class="xtick"
           id="g105">
          <text
             text-anchor="middle"
             x="0"
             y="334"
             style="font-size:12px;font-family:'TOBESTRIPPEDOpen SansTOBESTRIPPED', verdana, arial, sans-serif;white-space:pre;fill:#444444;fill-opacity:1"
             transform="translate(60)"
             id="text103">0</text>
        </g>
        <g
           class="xtick"
           id="g109">
          <text
             text-anchor="middle"
             x="0"
             y="334"
             style="font-size:12px;font-family:'TOBESTRIPPEDOpen SansTOBESTRIPPED', verdana, arial, sans-serif;white-space:pre;fill:#444444;fill-opacity:1"
             transform="translate(124.57)"
             id="text107">50</text>
        </g>
        <g
           class="xtick"
           id="g113">
          <text
             text-anchor="middle"
             x="0"
             y="334"
             style="font-size:12px;font-family:'TOBESTRIPPEDOpen SansTOBESTRIPPED', verdana, arial, sans-serif;white-space:pre;fill:#444444;fill-opacity:1"
             transform="translate(189.13)"
             id="text111">100</text>
        </g>
        <g
           class="xtick"
           id="g117">
          <text
             text-anchor="middle"
             x="0"
             y="334"
             style="font-size:12px;font-family:'TOBESTRIPPEDOpen SansTOBESTRIPPED', verdana, arial, sans-serif;white-space:pre;fill:#444444;fill-opacity:1"
             transform="translate(253.7)"
             id="text115">150</text>
        </g>
        <g
           class="xtick"
           id="g121">
          <text
             text-anchor="middle"
             x="0"
             y="334"
             style="font-size:12px;font-family:'TOBESTRIPPEDOpen SansTOBESTRIPPED', verdana, arial, sans-serif;white-space:pre;fill:#444444;fill-opacity:1"
             transform="translate(318.27)"
             id="text119">200</text>
        </g>
        <g
           class="xtick"
           id="g125">
          <text
             text-anchor="middle"
             x="0"
             y="334"
             style="font-size:12px;font-family:'TOBESTRIPPEDOpen SansTOBESTRIPPED', verdana, arial, sans-serif;white-space:pre;fill:#444444;fill-opacity:1"
             transform="translate(382.83)"
             id="text123">250</text>
        </g>
      </g>
      <g
         class="yaxislayer-above"
         id="g149">
        <g
           class="ytick"
           id="g131">
          <text
             text-anchor="end"
             x="59"
             y="4.1999998"
             style="font-size:12px;font-family:'TOBESTRIPPEDOpen SansTOBESTRIPPED', verdana, arial, sans-serif;white-space:pre;fill:#444444;fill-opacity:1"
             transform="translate(0,313.81)"
             id="text129">0.04</text>
        </g>
        <g
           class="ytick"
           id="g135">
          <text
             text-anchor="end"
             x="59"
             y="4.1999998"
             style="font-size:12px;font-family:'TOBESTRIPPEDOpen SansTOBESTRIPPED', verdana, arial, sans-serif;white-space:pre;fill:#444444;fill-opacity:1"
             transform="translate(0,251.58)"
             id="text133">0.06</text>
        </g>
        <g
           class="ytick"
           id="g139">
          <text
             text-anchor="end"
             x="59"
             y="4.1999998"
             style="font-size:12px;font-family:'TOBESTRIPPEDOpen SansTOBESTRIPPED', verdana, arial, sans-serif;white-space:pre;fill:#444444;fill-opacity:1"
             transform="translate(0,189.34)"
             id="text137">0.08</text>
        </g>
        <g
           class="ytick"
           id="g143">
          <text
             text-anchor="end"
             x="59"
             y="4.1999998"
             style="font-size:12px;font-family:'TOBESTRIPPEDOpen SansTOBESTRIPPED', verdana, arial, sans-serif;white-space:pre;fill:#444444;fill-opacity:1"
             transform="translate(0,127.11)"
             id="text141">0.1</text>
        </g>
        <g
           class="ytick"
           id="g147">
          <text
             text-anchor="end"
             x="59"
             y="4.1999998"
             style="font-size:12px;font-family:'TOBESTRIPPEDOpen SansTOBESTRIPPED', verdana, arial, sans-serif;white-space:pre;fill:#444444;fill-opacity:1"
             transform="translate(0,64.87)"
             id="text145">0.12</text>
        </g>
      </g>
      <g
         class="overaxes-above"
         id="g151" />
    </g>
  </g>
  <g
     class="polarlayer"
     id="g157" />
  <g
     class="ternarylayer"
     id="g159" />
  <g
     class="geolayer"
     id="g161" />
  <g
     class="funnelarealayer"
     id="g163" />
  <g
     class="pielayer"
     id="g165" />
  <g
     class="treemaplayer"
     id="g167" />
  <g
     class="sunburstlayer"
     id="g169" />
  <g
     class="glimages"
     id="g171" />
  <defs
     id="topdefs-9a19af">
    <g
       class="clips"
       id="g173" />
  </defs>
  <g
     class="layer-above"
     id="g180">
    <g
       class="imagelayer"
       id="g176" />
    <g
       class="shapelayer"
       id="g178" />
  </g>
  <g
     class="infolayer"
     id="g192">
    <g
       class="g-gtitle"
       id="g184">
      <text
         class="gtitle"
         style="font-family: TOBESTRIPPEDOpen SansTOBESTRIPPED, verdana, arial, sans-serif; font-size: 17px; fill: rgb(68, 68, 68); opacity: 1; font-weight: normal; white-space: pre;"
         x="224"
         y="30"
         text-anchor="middle"
         dy="0em"
         id="text182">rpn_loc_loss</text>
    </g>
    <g
       class="g-ytitle"
       id="g190" />
  </g>
  <rect
     style="fill:#ffffff"
     id="rect1109"
     width="39.150379"
     height="307.8945"
     x="408.7565"
     y="27.869761" />
</svg>
