<svg class="main-svg" xmlns="http://www.w3.org/2000/svg" xmlns:xlink="http://www.w3.org/1999/xlink" width="422" height="381" style="" viewBox="0 0 422 381"><rect x="0" y="0" width="422" height="381" style="fill: rgb(255, 255, 255); fill-opacity: 1;"/><defs id="defs-542744"><g class="clips"><clipPath id="clip542744xyplot" class="plotclip"><rect width="302" height="261"/></clipPath><clipPath class="axesclip" id="clip542744x"><rect x="60" y="0" width="302" height="381"/></clipPath><clipPath class="axesclip" id="clip542744y"><rect x="0" y="60" width="422" height="261"/></clipPath><clipPath class="axesclip" id="clip542744xy"><rect x="60" y="60" width="302" height="261"/></clipPath></g><g class="gradients"/></defs><g class="bglayer"/><g class="layer-below"><g class="imagelayer"/><g class="shapelayer"/></g><g class="cartesianlayer"><g class="subplot xy"><g class="layer-subplot"><g class="shapelayer"/><g class="imagelayer"/></g><g class="gridlayer"><g class="x"><path class="xgrid crisp" transform="translate(178.9,0)" d="M0,60v261" style="stroke: rgb(238, 238, 238); stroke-opacity: 1; stroke-width: 1px;"/><path class="xgrid crisp" transform="translate(297.8,0)" d="M0,60v261" style="stroke: rgb(238, 238, 238); stroke-opacity: 1; stroke-width: 1px;"/></g><g class="y"><path class="ygrid crisp" transform="translate(0,289.91999999999996)" d="M60,0h302" style="stroke: rgb(238, 238, 238); stroke-opacity: 1; stroke-width: 1px;"/><path class="ygrid crisp" transform="translate(0,243.11)" d="M60,0h302" style="stroke: rgb(238, 238, 238); stroke-opacity: 1; stroke-width: 1px;"/><path class="ygrid crisp" transform="translate(0,196.3)" d="M60,0h302" style="stroke: rgb(238, 238, 238); stroke-opacity: 1; stroke-width: 1px;"/><path class="ygrid crisp" transform="translate(0,149.49)" d="M60,0h302" style="stroke: rgb(238, 238, 238); stroke-opacity: 1; stroke-width: 1px;"/><path class="ygrid crisp" transform="translate(0,102.68)" d="M60,0h302" style="stroke: rgb(238, 238, 238); stroke-opacity: 1; stroke-width: 1px;"/></g></g><g class="zerolinelayer"><path class="xzl zl crisp" transform="translate(60,0)" d="M0,60v261" style="stroke: rgb(68, 68, 68); stroke-opacity: 1; stroke-width: 1px;"/></g><path class="xlines-below"/><path class="ylines-below"/><g class="overlines-below"/><g class="xaxislayer-below"/><g class="yaxislayer-below"/><g class="overaxes-below"/><g class="plot" transform="translate(60,60)" clip-path="url('#clip542744xyplot')"><g class="scatterlayer mlayer"><g class="trace scatter tracee6d1b6" style="stroke-miterlimit: 2; opacity: 1;"><g class="fills"/><g class="errorbars"/><g class="lines"><path class="js-line" style="vector-effect: non-scaling-stroke; fill: none; stroke: rgb(31, 119, 180); stroke-opacity: 1; stroke-width: 2px; opacity: 1;" d="M0,13.05L2.38,65.2L3.57,74.41L5.94,91.52L7.13,97.63L10.7,108.21L11.89,111.61L15.46,121.42L16.65,123.63L19.02,128.11L20.21,163.96L21.4,161.81L22.59,167.23L26.16,167.61L27.35,167.56L30.91,167.61L32.1,168.24L35.67,168.55L36.86,169.53L39.24,169.79L40.43,185.86L41.61,181.88L42.8,183.97L46.37,182.93L47.56,183.74L52.31,184.64L53.5,184.12L55.88,184.38L57.07,184.9L59.45,184L60.64,197.94L61.83,194.59L63.02,195.67L66.58,197.21L67.77,195.71L72.53,195.04L73.72,194.69L79.66,194.67L80.85,198.99L82.04,200.39L83.23,200.08L85.61,201.4L86.8,201.71L87.98,202.49L89.17,201.94L91.55,201.9L92.74,202.12L93.93,201.34L95.12,201.68L99.87,200.39L101.06,206.37L102.25,208.96L103.44,208.47L107.01,204.51L108.2,204.04L110.57,204.45L111.76,204.59L114.14,204.7L115.33,204.73L120.09,205.09L121.28,212.15L123.65,211.96L124.84,212.94L127.22,212.77L128.41,212.61L130.79,212.08L131.98,212.45L134.35,211.52L135.54,211.34L139.11,210.47L140.3,210.19L141.49,221.94L142.68,219.9L143.87,219.61L145.06,217.55L152.19,215.99L153.38,216.17L159.32,214.06L160.51,214.21L162.89,222.42L164.08,222.53L167.65,219.56L168.83,219.19L170.02,218.82L171.21,217.59L174.78,216.83L175.97,217.1L177.16,217.35L178.35,216.71L180.72,216.23L181.91,220.75L185.48,222.31L186.67,220.33L189.05,219.27L190.24,219.99L191.43,220.31L192.61,219.26L194.99,219.65L196.18,219.14L200.94,218.85L202.13,227.1L204.5,230.62L205.69,231.15L208.07,231.74L209.26,232.64L211.64,233.46L212.83,233.8L215.2,234.12L216.39,234.77L219.96,235.54L221.15,235.46L222.34,240.7L223.53,240.69L225.91,239.9L227.09,240.43L230.66,239.84L231.85,239.83L241.36,240.84L242.55,244.95L243.74,243.57L244.93,244.07L248.5,243.61L249.69,243.64L255.63,243.14L256.82,243.2L261.57,243.4L262.76,245.49L265.14,245.78L266.33,244.78L271.09,244.93L272.28,244.39L277.03,244.78L278.22,244.81L281.79,245.12L282.98,246.6L284.17,247.54L285.35,247.31L288.92,247.95L290.11,247.33L293.68,247.39L294.87,247.43L300.81,246.86L302,246.9"/></g><g class="points"/><g class="text"/></g></g></g><g class="overplot"/><path class="xlines-above crisp" style="fill: none;" d="M0,0"/><path class="ylines-above crisp" style="fill: none;" d="M0,0"/><g class="overlines-above"/><g class="xaxislayer-above"><g class="xtick"><text text-anchor="middle" x="0" y="334" style="font-family: TOBESTRIPPEDOpen SansTOBESTRIPPED, verdana, arial, sans-serif; font-size: 12px; fill: rgb(68, 68, 68); fill-opacity: 1; white-space: pre;" transform="translate(60,0)">0</text></g><g class="xtick"><text text-anchor="middle" x="0" y="334" style="font-family: TOBESTRIPPEDOpen SansTOBESTRIPPED, verdana, arial, sans-serif; font-size: 12px; fill: rgb(68, 68, 68); fill-opacity: 1; white-space: pre;" transform="translate(178.9,0)">100</text></g><g class="xtick"><text text-anchor="middle" x="0" y="334" style="font-family: TOBESTRIPPEDOpen SansTOBESTRIPPED, verdana, arial, sans-serif; font-size: 12px; fill: rgb(68, 68, 68); fill-opacity: 1; white-space: pre;" transform="translate(297.8,0)">200</text></g></g><g class="yaxislayer-above"><g class="ytick"><text text-anchor="end" x="59" y="4.199999999999999" style="font-family: TOBESTRIPPEDOpen SansTOBESTRIPPED, verdana, arial, sans-serif; font-size: 12px; fill: rgb(68, 68, 68); fill-opacity: 1; white-space: pre;" transform="translate(0,289.91999999999996)">0.05</text></g><g class="ytick"><text text-anchor="end" x="59" y="4.199999999999999" style="font-family: TOBESTRIPPEDOpen SansTOBESTRIPPED, verdana, arial, sans-serif; font-size: 12px; fill: rgb(68, 68, 68); fill-opacity: 1; white-space: pre;" transform="translate(0,243.11)">0.1</text></g><g class="ytick"><text text-anchor="end" x="59" y="4.199999999999999" style="font-family: TOBESTRIPPEDOpen SansTOBESTRIPPED, verdana, arial, sans-serif; font-size: 12px; fill: rgb(68, 68, 68); fill-opacity: 1; white-space: pre;" transform="translate(0,196.3)">0.15</text></g><g class="ytick"><text text-anchor="end" x="59" y="4.199999999999999" style="font-family: TOBESTRIPPEDOpen SansTOBESTRIPPED, verdana, arial, sans-serif; font-size: 12px; fill: rgb(68, 68, 68); fill-opacity: 1; white-space: pre;" transform="translate(0,149.49)">0.2</text></g><g class="ytick"><text text-anchor="end" x="59" y="4.199999999999999" style="font-family: TOBESTRIPPEDOpen SansTOBESTRIPPED, verdana, arial, sans-serif; font-size: 12px; fill: rgb(68, 68, 68); fill-opacity: 1; white-space: pre;" transform="translate(0,102.68)">0.25</text></g></g><g class="overaxes-above"/></g></g><g class="polarlayer"/><g class="ternarylayer"/><g class="geolayer"/><g class="funnelarealayer"/><g class="pielayer"/><g class="treemaplayer"/><g class="sunburstlayer"/><g class="glimages"/><defs id="topdefs-542744"><g class="clips"/></defs><g class="layer-above"><g class="imagelayer"/><g class="shapelayer"/></g><g class="infolayer"><g class="g-gtitle"><text class="gtitle" style="font-family: TOBESTRIPPEDOpen SansTOBESTRIPPED, verdana, arial, sans-serif; font-size: 17px; fill: rgb(68, 68, 68); opacity: 1; font-weight: normal; white-space: pre;" x="211" y="30" text-anchor="middle" dy="0em">rpn_cls_loss</text></g><g class="g-xtitle"><text class="xtitle" style="font-family: TOBESTRIPPEDOpen SansTOBESTRIPPED, verdana, arial, sans-serif; font-size: 14px; fill: rgb(68, 68, 68); opacity: 1; font-weight: normal; white-space: pre;" x="211" y="373" text-anchor="middle">px</text></g><g class="g-ytitle"/></g></svg>