<svg class="main-svg" xmlns="http://www.w3.org/2000/svg" xmlns:xlink="http://www.w3.org/1999/xlink" width="372" height="336" style="" viewBox="0 0 372 336"><rect x="0" y="0" width="372" height="336" style="fill: rgb(255, 255, 255); fill-opacity: 1;"/><defs id="defs-5115a8"><g class="clips"><clipPath id="clip5115a8xyplot" class="plotclip"><rect width="252" height="216"/></clipPath><clipPath class="axesclip" id="clip5115a8x"><rect x="60" y="0" width="252" height="336"/></clipPath><clipPath class="axesclip" id="clip5115a8y"><rect x="0" y="60" width="372" height="216"/></clipPath><clipPath class="axesclip" id="clip5115a8xy"><rect x="60" y="60" width="252" height="216"/></clipPath></g><g class="gradients"/></defs><g class="bglayer"/><g class="layer-below"><g class="imagelayer"/><g class="shapelayer"/></g><g class="cartesianlayer"><g class="subplot xy"><g class="layer-subplot"><g class="shapelayer"/><g class="imagelayer"/></g><g class="gridlayer"><g class="x"><path class="xgrid crisp" transform="translate(159.20999999999998,0)" d="M0,60v216" style="stroke: rgb(238, 238, 238); stroke-opacity: 1; stroke-width: 1px;"/><path class="xgrid crisp" transform="translate(258.43,0)" d="M0,60v216" style="stroke: rgb(238, 238, 238); stroke-opacity: 1; stroke-width: 1px;"/></g><g class="y"><path class="ygrid crisp" transform="translate(0,252.28)" d="M60,0h252" style="stroke: rgb(238, 238, 238); stroke-opacity: 1; stroke-width: 1px;"/><path class="ygrid crisp" transform="translate(0,196.06)" d="M60,0h252" style="stroke: rgb(238, 238, 238); stroke-opacity: 1; stroke-width: 1px;"/><path class="ygrid crisp" transform="translate(0,139.84)" d="M60,0h252" style="stroke: rgb(238, 238, 238); stroke-opacity: 1; stroke-width: 1px;"/><path class="ygrid crisp" transform="translate(0,83.62)" d="M60,0h252" style="stroke: rgb(238, 238, 238); stroke-opacity: 1; stroke-width: 1px;"/></g></g><g class="zerolinelayer"><path class="xzl zl crisp" transform="translate(60,0)" d="M0,60v216" style="stroke: rgb(68, 68, 68); stroke-opacity: 1; stroke-width: 1px;"/></g><path class="xlines-below"/><path class="ylines-below"/><g class="overlines-below"/><g class="xaxislayer-below"/><g class="yaxislayer-below"/><g class="overaxes-below"/><g class="plot" transform="translate(60,60)" clip-path="url('#clip5115a8xyplot')"><g class="scatterlayer mlayer"><g class="trace scatter tracef5681f" style="stroke-miterlimit: 2; opacity: 1;"><g class="fills"/><g class="errorbars"/><g class="lines"><path class="js-line" style="vector-effect: non-scaling-stroke; fill: none; stroke: rgb(31, 119, 180); stroke-opacity: 1; stroke-width: 2px; opacity: 1;" d="M0,10.8L1.98,56.78L2.98,65.1L4.96,75.62L5.95,79.58L14.88,99.69L15.87,101.21L16.87,129.82L17.86,127.61L19.84,131.04L20.83,131.48L24.8,133.32L25.8,133.33L32.74,135.7L33.73,148.29L34.72,146.03L35.72,145.8L37.7,145.36L38.69,145.53L43.65,147.07L44.65,146.77L47.62,147.1L48.61,146.9L49.61,146.66L50.6,153.81L52.58,152.43L53.57,153.54L55.56,155.05L56.55,154.17L60.52,154.56L61.51,154.06L64.49,154.18L65.48,154.23L66.47,154.27L67.46,163.3L70.44,162.07L71.43,161.15L77.39,160.82L78.38,160.04L82.35,159.93L83.34,159.58L85.32,166.82L86.31,165.81L88.3,164.64L89.29,164.72L91.28,163.66L92.27,163.59L94.25,164.33L95.24,163.83L98.22,163.52L99.21,163.73L100.2,163.77L101.2,168.23L102.19,169.56L103.18,169.02L105.17,169.63L106.16,169.22L110.13,168.31L111.12,168.22L115.09,167.44L116.08,167.16L117.07,167.08L118.06,176.96L122.03,173.02L123.02,172.28L125.01,171.38L126,171.25L127.98,171.38L128.98,171.01L133.94,170.28L134.93,172.78L135.92,176.33L136.91,175.82L138.9,173.95L139.89,173.38L141.87,173.83L142.87,173.47L148.82,173.02L149.81,172.8L150.8,172.52L151.8,176.32L154.77,177.65L155.76,176.91L156.76,176.23L157.75,176.47L159.73,176.36L160.72,175.67L163.7,175.52L164.69,175.43L167.67,174.79L168.66,186.95L170.65,188.97L171.64,190.35L173.62,190.59L174.61,191.23L179.57,192.25L180.57,192.41L184.54,193L185.53,196.6L187.51,197.35L188.5,197.13L191.48,197.28L192.47,197.25L201.4,197.58L202.39,199.99L205.37,198.93L206.36,199.42L208.35,199.64L209.34,199.58L218.27,199.93L219.26,201.51L220.25,202.4L221.24,202.06L230.17,201.14L231.17,201.26L235.13,201.49L236.13,205.2L238.11,203.35L239.1,203.52L242.08,203.58L243.07,203.44L246.05,203.74L247.04,203.56L252,203.05"/></g><g class="points"/><g class="text"/></g></g></g><g class="overplot"/><path class="xlines-above crisp" style="fill: none;" d="M0,0"/><path class="ylines-above crisp" style="fill: none;" d="M0,0"/><g class="overlines-above"/><g class="xaxislayer-above"><g class="xtick"><text text-anchor="middle" x="0" y="289" style="font-family: TOBESTRIPPEDOpen SansTOBESTRIPPED, verdana, arial, sans-serif; font-size: 12px; fill: rgb(68, 68, 68); fill-opacity: 1; white-space: pre;" transform="translate(60,0)">0</text></g><g class="xtick"><text text-anchor="middle" x="0" y="289" style="font-family: TOBESTRIPPEDOpen SansTOBESTRIPPED, verdana, arial, sans-serif; font-size: 12px; fill: rgb(68, 68, 68); fill-opacity: 1; white-space: pre;" transform="translate(159.20999999999998,0)">100</text></g><g class="xtick"><text text-anchor="middle" x="0" y="289" style="font-family: TOBESTRIPPEDOpen SansTOBESTRIPPED, verdana, arial, sans-serif; font-size: 12px; fill: rgb(68, 68, 68); fill-opacity: 1; white-space: pre;" transform="translate(258.43,0)">200</text></g></g><g class="yaxislayer-above"><g class="ytick"><text text-anchor="end" x="59" y="4.199999999999999" style="font-family: TOBESTRIPPEDOpen SansTOBESTRIPPED, verdana, arial, sans-serif; font-size: 12px; fill: rgb(68, 68, 68); fill-opacity: 1; white-space: pre;" transform="translate(0,252.28)">0.5</text></g><g class="ytick"><text text-anchor="end" x="59" y="4.199999999999999" style="font-family: TOBESTRIPPEDOpen SansTOBESTRIPPED, verdana, arial, sans-serif; font-size: 12px; fill: rgb(68, 68, 68); fill-opacity: 1; white-space: pre;" transform="translate(0,196.06)">1</text></g><g class="ytick"><text text-anchor="end" x="59" y="4.199999999999999" style="font-family: TOBESTRIPPEDOpen SansTOBESTRIPPED, verdana, arial, sans-serif; font-size: 12px; fill: rgb(68, 68, 68); fill-opacity: 1; white-space: pre;" transform="translate(0,139.84)">1.5</text></g><g class="ytick"><text text-anchor="end" x="59" y="4.199999999999999" style="font-family: TOBESTRIPPEDOpen SansTOBESTRIPPED, verdana, arial, sans-serif; font-size: 12px; fill: rgb(68, 68, 68); fill-opacity: 1; white-space: pre;" transform="translate(0,83.62)">2</text></g></g><g class="overaxes-above"/></g></g><g class="polarlayer"/><g class="ternarylayer"/><g class="geolayer"/><g class="funnelarealayer"/><g class="pielayer"/><g class="treemaplayer"/><g class="sunburstlayer"/><g class="glimages"/><defs id="topdefs-5115a8"><g class="clips"/></defs><g class="layer-above"><g class="imagelayer"/><g class="shapelayer"/></g><g class="infolayer"><g class="g-gtitle"><text class="gtitle" style="font-family: TOBESTRIPPEDOpen SansTOBESTRIPPED, verdana, arial, sans-serif; font-size: 17px; fill: rgb(68, 68, 68); opacity: 1; font-weight: normal; white-space: pre;" x="186" y="30" text-anchor="middle" dy="0em">total_loss</text></g><g class="g-xtitle"><text class="xtitle" style="font-family: TOBESTRIPPEDOpen SansTOBESTRIPPED, verdana, arial, sans-serif; font-size: 14px; fill: rgb(68, 68, 68); opacity: 1; font-weight: normal; white-space: pre;" x="186" y="328" text-anchor="middle">px</text></g><g class="g-ytitle"/></g></svg>